<svg id="OBJECTS" xmlns="http://www.w3.org/2000/svg" viewBox="0 0 273.7 293.31"><defs><style>.cls-1{fill:#f7f0e8;}.cls-2{fill:#33302c;}</style></defs><path class="cls-1" d="M198.32,258c.72-.34,1.46-.66,2.2-1-2.1,1.12-4.22,2.19-6.39,3.19C195.49,259.42,196.89,258.67,198.32,258Z"/><path class="cls-1" d="M272.55,137.11a135.34,135.34,0,0,1-37.33,93.51c-7.05-.19-18.22-.49-22.29-.47-8.37.06-16.7,1.11-25.11.64a18.71,18.71,0,0,1-11-4.21A65.15,65.15,0,0,0,160,216.43l-5.56-2.17A205.79,205.79,0,0,0,158.28,194a79.53,79.53,0,0,0,15,1.71c12,.31,23.87-.09,35.56-3.09,13.06-3.35,25.2-8.38,34.8-18.3.84-.87,1-1.43.27-2.4a72.79,72.79,0,0,1-7.39-13.32c-.17-.37-.56-.75-.23-1.38.25.49.45.87.64,1.26a54.06,54.06,0,0,0,8.6,12.28c.44.48.85,1.08,1.84,1-.76-1.85-2.2-3-3.16-4.56s-2-3.07-2.84-4.7-1.71-3.33-2.49-5a26.51,26.51,0,0,1-1.88-5,9.94,9.94,0,0,1,.91,1.44A53,53,0,0,0,248,167.23c.53.49,1,1.13,2,1-.73-1.51-2-2.39-3-3.56-2.8-3.39-4.66-7.36-6.72-11.19-5.05-9.39-8.08-19.6-11.49-29.63-3-8.91-5.19-18.12-8.7-26.91-3.91-9.8-8.18-19.37-14.1-28.19a76.23,76.23,0,0,0-25-23.84C168,37.24,153.64,34,138.65,33.4a67.39,67.39,0,0,0-22.5,3.26A102.17,102.17,0,0,0,89.34,49.81c-5.72,3.82-10.92,8.31-14.73,14.13A110.19,110.19,0,0,0,60,97.36c-2.45,9.62-3.3,19.53-5,29.29-1,5.6-1.59,11.27-3.12,16.76-1.78,6.41-2.27,12.81,0,19.22A31.3,31.3,0,0,0,59.29,175a25.6,25.6,0,0,0,2.07,1.67l.23-.28a23.31,23.31,0,0,1-4.23-6c-1.29-2.76-2.14-5.84-1.93-7,2.83,8,5.94,12.46,12.55,17.72a41.52,41.52,0,0,0,16.58,8.3c3.92.9,7.8,2,11.84,2.7-.86,3.55-1.77,7-2.78,10.48a1.31,1.31,0,0,1-.92,1,34.29,34.29,0,0,0-7.23,3.89c-4.64,3-8.24,7.13-12,11.1-2.78,2.95-5.31,6.14-8.22,9a10.85,10.85,0,0,1-5.7,2.94c-4.24.83-8.55,1-12.82,1.48-2.13.24-4.26.52-6.38.82a135.8,135.8,0,1,1,232.18-95.66Z"/><path class="cls-1" d="M193.62,125.59a35.66,35.66,0,0,0-3.15-6.15,5.72,5.72,0,0,1-.81-4.86c-5.81-1.39-11.61-2.52-17.63-1.55a31,31,0,0,1,8.95-4.34A11,11,0,0,1,188,109c1.15.48,2.23,1.12,3.37,1.71a10.75,10.75,0,0,0,1.52-3,25.74,25.74,0,0,0,.73-7c0-1-.37-1.47-1.24-1.62a31.72,31.72,0,0,0-4.66-.57,59.19,59.19,0,0,0-12,1.44c-2,.38-4,1.22-6.12.9,0-2.51,2.06-5.69,3.86-6.07-.13,1-1.34,1.32-1.63,2.53.52-.5.85-.83,1.2-1.12,1.31-1.1,2.66-2.11,4.5-2.12A57,57,0,0,1,193.2,96a51.32,51.32,0,0,0-1.32-7c-.19-.71-.7-.84-1.2-1a97.67,97.67,0,0,0-34.94-7.84,98.29,98.29,0,0,0-19.68,1c-6.69,1.08-13.23,2.73-19.81,4.28a2,2,0,0,0-1.77,2.12c-.13,3.22-.37,6.44-.51,9.67a97.87,97.87,0,0,0,1.93,22.33,171.22,171.22,0,0,0,9.6,32.44A159.36,159.36,0,0,0,142.77,184c1.24,1.76,2.63,3.42,3.95,5.13a2.19,2.19,0,0,1-1.43.66c-1,.13-2.07.3-3.1.39a41.52,41.52,0,0,1-11.08,0c-3.73-.69-7.34-1.8-11-2.82-2.1-.59-4.16-1.3-6.24-2a50.11,50.11,0,0,0,8.41,4.3,33.67,33.67,0,0,1-11.15-2.26,85.91,85.91,0,0,1-10.49-4.7c-5.34,25.89-13.93,50.67-21.83,75.74A3.22,3.22,0,0,0,80,257.29,231.93,231.93,0,0,1,95.29,239.7a36,36,0,0,1,6.09-5.14c1.84-1.17,2.91-.72,3.44,1.37a6.85,6.85,0,0,1,.22,1,65.68,65.68,0,0,1,.44,9.4c-.18,13-.48,25.92-.74,38.89a35.63,35.63,0,0,0,.14,5.35,1.66,1.66,0,0,0,1.07-.83,68.34,68.34,0,0,0,5.51-8.1C117.65,271.58,124,261.6,132,252.8a68.33,68.33,0,0,1,16.83-14,1.71,1.71,0,0,0,1.08-1.91,52.8,52.8,0,0,1,1.36-18c1.33-5.85,2.87-11.64,4-17.53.7-3.54,1.05-7.15,2-10.63a5.18,5.18,0,0,1,4.67-4.05,93.94,93.94,0,0,0,11.32-1.82c4.08-1.07,7-3.42,8.34-7.49.64-1.9,1.29-3.79,2-5.66,2.06-5.26,4.29-10.46,6.22-15.78a81.24,81.24,0,0,0,4.5-20.84A22.1,22.1,0,0,0,193.62,125.59Zm-33.7-26.24a15,15,0,0,1-1.67-5.79A13.27,13.27,0,0,1,159.92,99.35Zm-1.27-.14-2.71-6.42C157.09,92.78,159,97.12,158.65,99.21Zm-34.86-5.66a37.89,37.89,0,0,1-4.54.34c6-1.93,11.95-4.21,18.24-5.14a17.75,17.75,0,0,1,6.48.4c3.09.69,6.14,1.49,9.15,2.46a4.09,4.09,0,0,1,2.43,2c.94,1.61,1.93,3.18,1.88,5.19a6.13,6.13,0,0,1-3.08-.3c-5.4-1-10.57-3-15.94-4.14C133.6,93.31,128.74,92.6,123.79,93.55Zm51,57.23a5,5,0,0,1-1.11,1.91c-1.25,1-1.18,2.15-.67,3.5a5.09,5.09,0,0,1-1.31,6,9.52,9.52,0,0,1-5.23,2.2A18.92,18.92,0,0,1,149,157.87a13.36,13.36,0,0,1-2.34-3.17c.8-.55,1.69-.34,2.47-1-2.32-1-5.24-.85-6.68-3.54.88-.35,1.45.21,2.1.31a11.88,11.88,0,0,0,7.65-1.27,46.41,46.41,0,0,1,12.57-4.6,13.42,13.42,0,0,1,8.18.88C175.27,146.57,175.91,148.45,174.83,150.78Z"/><path class="cls-2" d="M198.32,258c-1.43.68-2.83,1.43-4.19,2.23,2.17-1,4.29-2.07,6.39-3.19C199.78,257.33,199,257.65,198.32,258Zm-121,3.24c1,.51,1.52-.38,2-1.05-.79-.36-1.58-.74-2.35-1.12C76.74,259.86,76.4,260.77,77.27,261.23Z"/><path class="cls-2" d="M247,164.64c-2.8-3.39-4.66-7.36-6.72-11.19-5.05-9.39-8.08-19.6-11.49-29.63-3-8.91-5.19-18.12-8.7-26.91-3.91-9.8-8.18-19.37-14.1-28.19a76.23,76.23,0,0,0-25-23.84C168,37.24,153.64,34,138.65,33.4a67.39,67.39,0,0,0-22.5,3.26A102.17,102.17,0,0,0,89.34,49.81c-5.72,3.82-10.92,8.31-14.73,14.13A110.19,110.19,0,0,0,60,97.36c-2.45,9.62-3.3,19.53-5,29.29-1,5.6-1.59,11.27-3.12,16.76-1.78,6.41-2.27,12.81,0,19.22A31.3,31.3,0,0,0,59.29,175a25.6,25.6,0,0,0,2.07,1.67l.23-.28a23.31,23.31,0,0,1-4.23-6c-1.29-2.76-2.14-5.84-1.93-7,2.83,8,5.94,12.46,12.55,17.72a41.52,41.52,0,0,0,16.58,8.3c3.92.9,7.8,2,11.84,2.7-.86,3.55-1.77,7-2.78,10.48a1.31,1.31,0,0,1-.92,1,34.29,34.29,0,0,0-7.23,3.89c-4.64,3-8.24,7.13-12,11.1-2.78,2.95-5.31,6.14-8.22,9a10.85,10.85,0,0,1-5.7,2.94c-4.24.83-8.55,1-12.82,1.48-6.9.79-13.75,1.88-20.56,3.23a4.43,4.43,0,0,0-2.72,1.13c1.81-.2,3.59-.5,5.38-.81,5.17-.91,10.37-1.72,15.6-2.17,4.73-.41,9.49-.53,14.23-.84a11.36,11.36,0,0,0,8.25-3.65c1.44-1.64,3-3.18,4.41-4.84a114,114,0,0,1,13-13.64,42.59,42.59,0,0,1,8.43-5.44,5.31,5.31,0,0,1-.12.93c-3.93,12.29-7.31,24.74-11,37.1-1.59,5.29-3.49,10.49-4.65,15.9-.18.84-.67,1.88.28,2.38s1.62-.58,2.17-1.24c4.39-5.2,8.6-10.55,13.19-15.59a58.6,58.6,0,0,1,8.61-8.2c.53-.39,1-1,1.87-.78a8.69,8.69,0,0,1,.6,3.58c.2,6.73-.14,13.45-.33,20.17-.26,9.16-.63,18.32-.59,27.49a14.91,14.91,0,0,0,.43,4.15c.5,1.67,1.77,2,3.07.83a17,17,0,0,0,2.35-2.8c4.39-6.14,8.1-12.73,12.38-18.94,5.68-8.25,11.76-16.18,19.33-22.82,4-3.49,8.15-6.7,13.18-8.62a5.82,5.82,0,0,1,6.09,1c4,3.06,5.25,7.36,5.69,12,.46,4.82.46,9.67.59,14.51a16.23,16.23,0,0,0,1.22,6.51A3.82,3.82,0,0,0,171,275a10.35,10.35,0,0,0,4-1.16c5.22-2.4,9.85-5.76,14.6-8.93,5.16-3.43,10.38-6.72,16.47-8.29,8.34-2.15,16.86-2.88,25.41-3.39a7.42,7.42,0,0,0,3.32-.75c-1.12-.44-1.92,0-2.74,0A150.25,150.25,0,0,0,212.42,254a48.41,48.41,0,0,0-14.1,4c-5,2.39-9.54,5.6-14.23,8.55-3.61,2.27-7.17,4.65-11.21,6.13-2.73,1-3.81.43-4.41-2.36a55.88,55.88,0,0,1-.8-10.81,62.64,62.64,0,0,0-1-11.43,15.64,15.64,0,0,0-7.53-11,5.88,5.88,0,0,0-4.39-.73c-1.28.26-2.44.86-3.79,1.11-.25-7.33,1.6-14.25,3.08-21.31l.79.25A67.69,67.69,0,0,1,175,227.91c3.63,2.92,7.65,5.05,12.56,4.62a7,7,0,0,1,1.44.05,51.22,51.22,0,0,0,10.06-.19c4.86-.45,9.71-1,14.59-1.15,5.54-.14,11.09,0,16.63,0,.6,0,1.2-.08,1.8-.12a13.05,13.05,0,0,0-3.74-.67c-5.15-.14-10.3-.33-15.45-.3-8.37.06-16.7,1.11-25.11.64a18.71,18.71,0,0,1-11-4.21A65.15,65.15,0,0,0,160,216.43l-5.56-2.17A205.79,205.79,0,0,0,158.28,194a79.53,79.53,0,0,0,15,1.71c12,.31,23.87-.09,35.56-3.09,13.06-3.35,25.2-8.38,34.8-18.3.84-.87,1-1.43.27-2.4a72.79,72.79,0,0,1-7.39-13.32c-.17-.37-.56-.75-.23-1.38.25.49.45.87.64,1.26a54.06,54.06,0,0,0,8.6,12.28c.44.48.85,1.08,1.84,1-.76-1.85-2.2-3-3.16-4.56s-2-3.07-2.84-4.7-1.71-3.33-2.49-5a26.51,26.51,0,0,1-1.88-5,9.94,9.94,0,0,1,.91,1.44A53,53,0,0,0,248,167.23c.53.49,1,1.13,2,1C249.3,166.69,248,165.81,247,164.64ZM194.36,135a81.24,81.24,0,0,1-4.5,20.84c-1.93,5.32-4.16,10.52-6.22,15.78-.73,1.87-1.38,3.76-2,5.66-1.37,4.07-4.26,6.42-8.34,7.49A93.94,93.94,0,0,1,162,186.63a5.18,5.18,0,0,0-4.67,4.05c-1,3.48-1.33,7.09-2,10.63-1.15,5.89-2.69,11.68-4,17.53a52.8,52.8,0,0,0-1.36,18,1.71,1.71,0,0,1-1.08,1.91,68.33,68.33,0,0,0-16.83,14c-8,8.8-14.32,18.78-20.51,28.86a68.34,68.34,0,0,1-5.51,8.1,1.66,1.66,0,0,1-1.07.83,35.63,35.63,0,0,1-.14-5.35c.26-13,.56-25.93.74-38.89A65.68,65.68,0,0,0,105,237a6.85,6.85,0,0,0-.22-1c-.53-2.09-1.6-2.54-3.44-1.37a36,36,0,0,0-6.09,5.14A231.93,231.93,0,0,0,80,257.29a3.22,3.22,0,0,1-1.19,1.15c7.9-25.07,16.49-49.85,21.83-75.74a85.91,85.91,0,0,0,10.49,4.7,33.67,33.67,0,0,0,11.15,2.26,50.11,50.11,0,0,1-8.41-4.3c2.08.66,4.14,1.37,6.24,2,3.63,1,7.24,2.13,11,2.82a41.52,41.52,0,0,0,11.08,0c1-.09,2.06-.26,3.1-.39a2.19,2.19,0,0,0,1.43-.66c-1.32-1.71-2.71-3.37-3.95-5.13a159.36,159.36,0,0,1-17.27-32.16,171.22,171.22,0,0,1-9.6-32.44A97.87,97.87,0,0,1,114,97.07c.14-3.23.38-6.45.51-9.67a2,2,0,0,1,1.77-2.12c6.58-1.55,13.12-3.2,19.81-4.28a98.29,98.29,0,0,1,19.68-1,97.67,97.67,0,0,1,34.94,7.84c.5.21,1,.34,1.2,1a51.32,51.32,0,0,1,1.32,7,57,57,0,0,0-15.64-1.82c-1.84,0-3.19,1-4.5,2.12-.35.29-.68.62-1.2,1.12.29-1.21,1.5-1.51,1.63-2.53-1.8.38-3.82,3.56-3.86,6.07,2.13.32,4.1-.52,6.12-.9a59.19,59.19,0,0,1,12-1.44,31.72,31.72,0,0,1,4.66.57c.87.15,1.27.61,1.24,1.62a25.74,25.74,0,0,1-.73,7,10.75,10.75,0,0,1-1.52,3c-1.14-.59-2.22-1.23-3.37-1.71a11,11,0,0,0-7.06-.33A31,31,0,0,0,172,113c6-1,11.82.16,17.63,1.55a5.72,5.72,0,0,0,.81,4.86,35.66,35.66,0,0,1,3.15,6.15A22.1,22.1,0,0,1,194.36,135Z"/><path class="cls-2" d="M174.83,150.78a5,5,0,0,1-1.11,1.91c-1.25,1-1.18,2.15-.67,3.5a5.09,5.09,0,0,1-1.31,6,9.52,9.52,0,0,1-5.23,2.2A18.92,18.92,0,0,1,149,157.87a13.36,13.36,0,0,1-2.34-3.17c.8-.55,1.69-.34,2.47-1-2.32-1-5.24-.85-6.68-3.54.88-.35,1.45.21,2.1.31a11.88,11.88,0,0,0,7.65-1.27,46.41,46.41,0,0,1,12.57-4.6,13.42,13.42,0,0,1,8.18.88C175.27,146.57,175.91,148.45,174.83,150.78Z"/><path class="cls-2" d="M157.43,98.76a6.13,6.13,0,0,1-3.08-.3c-5.4-1-10.57-3-15.94-4.14-4.81-1-9.67-1.72-14.62-.77a37.89,37.89,0,0,1-4.54.34c6-1.93,11.95-4.21,18.24-5.14a17.75,17.75,0,0,1,6.48.4c3.09.69,6.14,1.49,9.15,2.46a4.09,4.09,0,0,1,2.43,2C156.49,95.18,157.48,96.75,157.43,98.76Z"/><path class="cls-2" d="M158.65,99.21l-2.71-6.42C157.09,92.78,159,97.12,158.65,99.21Z"/><path class="cls-2" d="M159.92,99.35a15,15,0,0,1-1.67-5.79A13.27,13.27,0,0,1,159.92,99.35Z"/><path class="cls-2" d="M208.51,37.41a9.17,9.17,0,0,0,4.62,5.09.3.3,0,0,1,0,.52,9.19,9.19,0,0,0-4.62,5.1.24.24,0,0,1-.45,0,9.21,9.21,0,0,0-4.61-5.1.29.29,0,0,1,0-.52,9.19,9.19,0,0,0,4.61-5.09A.24.24,0,0,1,208.51,37.41Z"/><path class="cls-2" d="M35.85,151.16a9.17,9.17,0,0,0,4.62,5.09.3.3,0,0,1,0,.52,9.16,9.16,0,0,0-4.62,5.1.24.24,0,0,1-.45,0,9.14,9.14,0,0,0-4.61-5.1.3.3,0,0,1,0-.52,9.16,9.16,0,0,0,4.61-5.09A.24.24,0,0,1,35.85,151.16Z"/><path class="cls-2" d="M59.77,194.85a6.84,6.84,0,0,0,3.42,3.77.22.22,0,0,1,0,.38,6.82,6.82,0,0,0-3.42,3.78.18.18,0,0,1-.34,0A6.77,6.77,0,0,0,56,199a.22.22,0,0,1,0-.38,6.79,6.79,0,0,0,3.41-3.77A.18.18,0,0,1,59.77,194.85Z"/><path class="cls-2" d="M219.66,59.46a7.36,7.36,0,0,0,3.7,4.09.23.23,0,0,1,0,.41,7.36,7.36,0,0,0-3.7,4.09.19.19,0,0,1-.36,0A7.38,7.38,0,0,0,215.59,64a.24.24,0,0,1,0-.41,7.38,7.38,0,0,0,3.71-4.09A.19.19,0,0,1,219.66,59.46Z"/><path class="cls-2" d="M222.32,46.42a3.19,3.19,0,0,0,1.61,1.77.1.1,0,0,1,0,.18,3.25,3.25,0,0,0-1.61,1.78.08.08,0,0,1-.16,0,3.2,3.2,0,0,0-1.6-1.78.1.1,0,0,1,0-.18,3.14,3.14,0,0,0,1.6-1.77A.08.08,0,0,1,222.32,46.42Z"/><path class="cls-2" d="M25.56,170.78a3.71,3.71,0,0,0,1.85,2.05.11.11,0,0,1,0,.2,3.74,3.74,0,0,0-1.85,2.05.09.09,0,0,1-.18,0A3.74,3.74,0,0,0,23.53,173a.11.11,0,0,1,0-.2,3.71,3.71,0,0,0,1.85-2.05A.09.09,0,0,1,25.56,170.78Z"/></svg>